#!OML:ASF F:\VICON\USERDATA\INSTALL\rory3\rory3.ASF
:FULLY-SPECIFIED
:DEGREES
209
root -6.34772 15.5646 1.35655 13.3068 4.28238 -4.09796
lowerback 26.72 0.572738 1.90919
upperback 5.9937 1.64365 3.86922
thorax -8.19561 0.770035 2.65764
lowerneck -17.9207 9.67793 -2.65317
upperneck 10.2673 14.9097 -8.07765
head 6.49189 6.44363 -0.540288
rclavicle -9.93923e-015 -2.18663e-014
rhumerus -32.9433 -30.929 -56.9716
rradius 61.058
rwrist 17.1795
rhand -37.7295 -12.0533
rfingers 7.12502
rthumb -10.7784 -41.7568
lclavicle -9.93923e-015 -2.18663e-014
lhumerus -0.327328 22.6114 62.6124
lradius 63.0502
lwrist -12.3102
lhand -31.1983 54.4741
lfingers 7.12502
lthumb -4.47458 84.4069
rfemur -40.4943 -5.53118 16.8244
rtibia 94.2534
rfoot 9.68819 11.0435
rtoes 23.5868
lfemur -58.1409 -1.16278 -16.7571
ltibia 77.883
lfoot -17.6967 -7.61798
ltoes -22.3214
210
root -6.35181 15.5925 1.4045 13.184 4.13949 -3.91821
lowerback 26.8074 0.777991 1.66941
upperback 5.87833 1.83509 3.72153
thorax -8.3783 0.863877 2.56829
lowerneck -17.4872 9.65538 -2.63763
upperneck 10.3188 14.8405 -7.98017
head 6.42781 6.42982 -0.540066
rclavicle -1.19271e-015 -6.36111e-015
rhumerus -33.4418 -30.5661 -56.7632
rradius 61.4413
rwrist 17.2403
rhand -37.9064 -12.1602
rfingers 7.12502
rthumb -10.949 -41.8547
lclavicle -1.19271e-015 -6.36111e-015
lhumerus -1.14401 22.383 62.2294
lradius 63.3965
lwrist -12.3254
lhand -30.7581 49.9259
lfingers 7.12502
lthumb -4.04951 79.8672
rfemur -41.5686 -5.79162 17.0825
rtibia 95.1459
rfoot 8.05401 11.0193
rtoes 21.5539
lfemur -57.5853 -1.32001 -16.8531
ltibia 77.5769
lfoot -17.7596 -7.5946
ltoes -22.7181
211
root -6.36003 15.6194 1.45533 12.9247 4.13892 -3.70129
lowerback 27.0651 0.931824 1.36747
upperback 5.81792 1.95275 3.6294
thorax -8.58664 0.924757 2.59998
lowerneck -17.2669 9.67414 -2.53231
upperneck 10.4314 14.8545 -8.06024
head 6.44287 6.43379 -0.584706
rclavicle -1.98785e-014 -1.66979e-014
rhumerus -33.5831 -30.3597 -56.7368
rradius 61.7432
rwrist 17.5775
rhand -37.7834 -12.5347
rfingers 7.12502
rthumb -10.8303 -42.2355
lclavicle -1.98785e-014 -1.66979e-014
lhumerus -2.00135 22.1316 61.8587
lradius 63.8798
lwrist -12.0375
lhand -30.6587 48.7084
lfingers 7.12502
lthumb -3.95358 78.6515
rfemur -42.5277 -6.21759 17.3454
rtibia 96.0269
rfoot 6.53153 10.6594
rtoes 22.376
lfemur -56.8388 -1.56059 -16.9729
ltibia 77.2819
lfoot -17.837 -7.55394
ltoes -22.7995
212
root -6.36434 15.6311 1.49543 12.7636 4.32124 -3.5636
lowerback 27.2672 0.994143 1.31051
upperback 5.81082 2.01808 3.56442
thorax -8.69809 0.956225 2.53732
lowerneck -16.8057 9.66077 -2.23111
upperneck 9.91464 14.7517 -8.44842
head 6.25249 6.40936 -0.791536
rclavicle 1.31198e-014 1.51076e-014
rhumerus -33.4221 -30.3778 -56.7473
rradius 61.7809
rwrist 18.0929
rhand -37.9339 -12.2942
rfingers 7.12502
rthumb -10.9755 -41.9873
lclavicle 1.31198e-014 1.51076e-014
lhumerus -2.60426 22.0815 61.5991
lradius 63.988
lwrist -11.5684
lhand -31.2192 47.9441
lfingers 7.12502
lthumb -4.4948 77.8764
rfemur -43.7144 -6.80224 17.7566
rtibia 96.9343
rfoot 5.02279 10.2583
rtoes 22.4019
lfemur -56.396 -1.93754 -16.984
ltibia 77.1013
lfoot -17.7724 -7.69418
ltoes -22.1158
213
root -6.36063 15.6248 1.52316 12.9756 4.24989 -3.33301
lowerback 27.0375 1.1259 1.16413
upperback 5.80675 2.12596 3.43758
thorax -8.59153 1.00956 2.4443
lowerneck -16.1887 9.63488 -1.9805
upperneck 9.0129 14.6031 -8.89259
head 5.91325 6.38554 -1.02949
rclavicle -2.90226e-014 -4.37326e-014
rhumerus -33.067 -30.219 -56.8795
rradius 61.9452
rwrist 18.1812
rhand -38.0068 -12.8628
rfingers 7.12502
rthumb -11.0459 -42.5522
lclavicle -2.90226e-014 -4.37326e-014
lhumerus -3.03674 22.0739 61.4476
lradius 64.3351
lwrist -11.6858
lhand -30.8848 50.462
lfingers 7.12502
lthumb -4.17188 80.4009
rfemur -45.5013 -7.26876 18.001
rtibia 97.8904
rfoot 3.4667 9.62059
rtoes 21.7963
lfemur -56.4968 -2.17029 -17.1853
ltibia 77.0263
lfoot -17.627 -7.54184
ltoes -21.9451
214
root -6.35368 15.6263 1.55979 13.1937 4.09585 -3.24384
lowerback 26.663 1.24467 1.12082
upperback 5.84476 2.24004 3.31255
thorax -8.36109 1.0637 2.29417
lowerneck -16.139 9.60445 -1.92389
upperneck 8.80415 14.5363 -8.96499
head 5.84632 6.36367 -1.07417
rclavicle 3.57812e-015 1.19271e-014
rhumerus -32.8377 -29.9682 -57.073
rradius 62.3781
rwrist 18.4376
rhand -38.002 -13.0752
rfingers 7.12502
rthumb -11.0412 -42.7648
lclavicle 3.57812e-015 1.19271e-014
lhumerus -3.28603 22.2915 61.3389
lradius 64.3379
lwrist -11.8798
lhand -30.5418 49.4708
lfingers 7.12502
lthumb -3.84071 79.4159
rfemur -47.3191 -7.57199 18.435
rtibia 98.6617
rfoot 2.27337 9.05584
rtoes 21.1414
lfemur -56.5381 -2.25863 -17.2691
ltibia 76.9034
lfoot -17.599 -7.39741
ltoes -22.2769
